<svg width="24" height="24" viewBox="0 0 24 24" fill="none" xmlns="http://www.w3.org/2000/svg">
<path d="M20.6789 16.7041C19.2291 15.4641 17.7577 14.713 16.3257 15.9511L15.4706 16.6995C14.8449 17.2427 13.6817 19.7808 9.1842 14.6071C4.68766 9.43998 7.36348 8.63546 7.99006 8.09692L8.84984 7.34765C10.2744 6.10667 9.73679 4.54445 8.70936 2.93633L8.08934 1.96228C7.05722 0.357912 5.93332 -0.695747 4.50502 0.543356L3.73328 1.2177C3.10202 1.67756 1.33749 3.17235 0.909472 6.01208C0.39435 9.41938 2.01933 13.3212 5.74225 17.6023C9.4605 21.8853 13.101 24.0367 16.5495 23.9992C19.4155 23.9683 21.1463 22.4304 21.6876 21.8713L22.4622 21.196C23.8867 19.9578 23.0016 18.6972 21.5509 17.4543L20.6789 16.7041Z" fill="url(#paint0_linear)"/>
<defs>
<linearGradient id="paint0_linear" x1="6.87433" y1="-6.62487e-07" x2="21.5056" y2="16.9408" gradientUnits="userSpaceOnUse">
<stop stop-color="#8EC3D6"/>
<stop offset="0.839411" stop-color="#436F7F"/>
</linearGradient>
</defs>
</svg>
