<svg width="20" height="20" viewBox="0 0 20 20" fill="none" xmlns="http://www.w3.org/2000/svg">
<circle cx="10" cy="10" r="10" fill="#EC472E"/>
<path d="M9.26131 7.46117H10.4209V15.26H9.24498L9.26131 7.46117ZM9.84927 5.61842C9.60973 5.61842 9.4083 5.5383 9.24498 5.37806C9.08166 5.21782 9 5.02553 9 4.8012C9 4.58754 9.08166 4.4006 9.24498 4.24036C9.4083 4.08012 9.60973 4 9.84927 4C10.0888 4 10.2902 4.08012 10.4536 4.24036C10.6169 4.38992 10.6985 4.57152 10.6985 4.78517C10.6985 5.02019 10.6169 5.21782 10.4536 5.37806C10.2902 5.5383 10.0888 5.61842 9.84927 5.61842Z" fill="white"/>
</svg>
