<svg width="40" height="40" viewBox="0 0 40 40" fill="none" xmlns="http://www.w3.org/2000/svg">
<path d="M20.3937 40.0004C20.2612 40.0004 20.1288 40.0004 19.9954 39.9998C16.86 40.0074 13.963 39.9278 11.1456 39.7562C8.56262 39.5991 6.20483 38.7064 4.32678 37.1751C2.51465 35.6974 1.27716 33.6994 0.648804 31.2373C0.101929 29.0937 0.072937 26.9895 0.045166 24.9543C0.0250244 23.494 0.00427246 21.7637 0 20.004C0.00427246 18.2371 0.0250244 16.5067 0.045166 15.0465C0.072937 13.0115 0.101929 10.9074 0.648804 8.7635C1.27716 6.30134 2.51465 4.30336 4.32678 2.82569C6.20483 1.29432 8.56262 0.401682 11.1459 0.244517C13.9633 0.0733131 16.861 -0.00664299 20.0031 0.000986416C23.1393 -0.00572745 26.0355 0.0733131 28.8528 0.244517C31.4359 0.401682 33.7936 1.29432 35.6717 2.82569C37.4841 4.30336 38.7213 6.30134 39.3497 8.7635C39.8965 10.9071 39.9255 13.0115 39.9533 15.0465C39.9734 16.5067 39.9945 18.2371 39.9985 19.9967V20.004C39.9945 21.7637 39.9734 23.494 39.9533 24.9543C39.9255 26.9892 39.8969 29.0934 39.3497 31.2373C38.7213 33.6994 37.4841 35.6974 35.6717 37.1751C33.7936 38.7064 31.4359 39.5991 28.8528 39.7562C26.1548 39.9204 23.3832 40.0004 20.3937 40.0004ZM19.9954 36.8748C23.0798 36.8821 25.9119 36.8043 28.663 36.637C30.6161 36.5183 32.3096 35.8845 33.6969 34.7532C34.9792 33.7074 35.8624 32.2645 36.3217 30.4646C36.777 28.6802 36.8033 26.7643 36.8286 24.9116C36.8484 23.4611 36.8692 21.7429 36.8735 20.0004C36.8692 18.2575 36.8484 16.5397 36.8286 15.0892C36.8033 13.2365 36.777 11.3206 36.3217 9.5359C35.8624 7.73597 34.9792 6.2931 33.6969 5.24726C32.3096 4.11628 30.6161 3.48243 28.663 3.36372C25.9119 3.19618 23.0798 3.11897 20.0027 3.12568C16.9189 3.11836 14.0866 3.19618 11.3354 3.36372C9.38232 3.48243 7.6889 4.11628 6.30157 5.24726C5.01923 6.2931 4.13605 7.73597 3.67676 9.5359C3.22144 11.3206 3.19519 13.2362 3.16986 15.0892C3.15002 16.5409 3.12927 18.26 3.125 20.004C3.12927 21.7405 3.15002 23.4599 3.16986 24.9116C3.19519 26.7643 3.22144 28.6802 3.67676 30.4646C4.13605 32.2645 5.01923 33.7074 6.30157 34.7532C7.6889 35.8842 9.38232 36.518 11.3354 36.6367C14.0866 36.8043 16.9196 36.8824 19.9954 36.8748ZM19.921 29.766C14.5364 29.766 10.1553 25.3852 10.1553 20.0004C10.1553 14.6156 14.5364 10.2348 19.921 10.2348C25.3058 10.2348 29.6866 14.6156 29.6866 20.0004C29.6866 25.3852 25.3058 29.766 19.921 29.766ZM19.921 13.3598C16.2595 13.3598 13.2803 16.3389 13.2803 20.0004C13.2803 23.6619 16.2595 26.641 19.921 26.641C23.5828 26.641 26.5616 23.6619 26.5616 20.0004C26.5616 16.3389 23.5828 13.3598 19.921 13.3598ZM30.7803 7.10975C29.4861 7.10975 28.4366 8.15895 28.4366 9.4535C28.4366 10.7481 29.4861 11.7973 30.7803 11.7973C32.0749 11.7973 33.1241 10.7481 33.1241 9.4535C33.1241 8.15895 32.0749 7.10975 30.7803 7.10975Z" fill="white"/>
</svg>
