<svg width="116" height="31" viewBox="0 0 116 31" fill="none" xmlns="http://www.w3.org/2000/svg">
<g clip-path="url(#clip0)">
<path d="M91.9987 0H85.6209C85.4405 0 85.2675 0.0710121 85.1399 0.197438C85.0123 0.323864 84.9407 0.495332 84.9407 0.674125V30.3153C84.9407 30.4951 85.012 30.6677 85.1393 30.7958C85.2665 30.9239 85.4396 30.9972 85.6209 31H91.9987C92.1791 31 92.3521 30.9289 92.4797 30.8025C92.6073 30.6761 92.679 30.5046 92.679 30.3258V0.674125C92.679 0.495332 92.6073 0.323864 92.4797 0.197438C92.3521 0.0710121 92.1791 0 91.9987 0Z" fill="#436F7F"/>
<path d="M1.18001 0C0.94455 0 0.714378 0.0691881 0.5186 0.198821C0.322822 0.328453 0.170232 0.512688 0.0801256 0.728258C-0.00998102 0.943829 -0.0335586 1.18106 0.0123773 1.40991C0.0583133 1.63875 0.171697 1.84896 0.338192 2.01395C0.504687 2.17894 0.716813 2.2913 0.947748 2.33682C1.17868 2.38234 1.41806 2.35896 1.6356 2.26967C1.85313 2.18038 2.03906 2.02917 2.16988 1.83516C2.30069 1.64115 2.37051 1.41308 2.37051 1.17974C2.37051 0.866855 2.24509 0.566779 2.02183 0.345533C1.79856 0.124287 1.49575 0 1.18001 0Z" fill="#436F7F"/>
<path d="M1.18009 8.59477C0.944184 8.59478 0.713583 8.66423 0.517582 8.79433C0.32158 8.92444 0.169007 9.10932 0.0792209 9.32551C-0.010565 9.54169 -0.033515 9.77944 0.0132891 10.0086C0.0600932 10.2377 0.174544 10.4479 0.342104 10.6125C0.509665 10.777 0.722786 10.8885 0.954418 10.9328C1.18605 10.9772 1.42575 10.9523 1.64309 10.8614C1.86044 10.7705 2.04563 10.6176 2.17515 10.4222C2.30468 10.2269 2.3727 9.99774 2.3706 9.76397C2.3706 9.60954 2.33974 9.45664 2.27978 9.3141C2.21983 9.17155 2.13195 9.04217 2.02126 8.93346C1.91057 8.82475 1.77925 8.73887 1.63487 8.68073C1.49049 8.6226 1.33593 8.59338 1.18009 8.59477Z" fill="#436F7F"/>
<path d="M1.18009 11.46C0.944184 11.46 0.713583 11.5295 0.517582 11.6596C0.32158 11.7897 0.169007 11.9746 0.0792209 12.1908C-0.010565 12.407 -0.033515 12.6447 0.0132891 12.8738C0.0600932 13.103 0.174544 13.3132 0.342104 13.4777C0.509665 13.6423 0.722786 13.7538 0.954418 13.7981C1.18605 13.8424 1.42575 13.8176 1.64309 13.7267C1.86044 13.6358 2.04563 13.4829 2.17515 13.2875C2.30468 13.0921 2.3727 12.863 2.3706 12.6292C2.3706 12.4748 2.33974 12.3219 2.27978 12.1794C2.21983 12.0368 2.13195 11.9074 2.02126 11.7987C1.91057 11.69 1.77925 11.6041 1.63487 11.546C1.49049 11.4879 1.33593 11.4586 1.18009 11.46Z" fill="#436F7F"/>
<path d="M4.1136 2.86523C3.87814 2.86523 3.64797 2.93442 3.45219 3.06405C3.25642 3.19369 3.10383 3.37792 3.01372 3.59349C2.92361 3.80906 2.90004 4.04629 2.94597 4.27514C2.99191 4.50399 3.10529 4.7142 3.27179 4.87919C3.43828 5.04418 3.65041 5.15654 3.88134 5.20206C4.11228 5.24758 4.35165 5.2242 4.56919 5.13491C4.78673 5.04561 4.97266 4.8944 5.10347 4.70039C5.23429 4.50639 5.3041 4.27831 5.3041 4.04498C5.3041 3.89005 5.27331 3.73663 5.21349 3.59349C5.15366 3.45036 5.06597 3.32032 4.95542 3.21077C4.84487 3.10122 4.71363 3.0143 4.56919 2.95502C4.42475 2.89573 4.26994 2.86523 4.1136 2.86523Z" fill="#436F7F"/>
<path d="M4.11404 8.59477C3.87813 8.59478 3.64754 8.66423 3.45154 8.79433C3.25554 8.92444 3.10297 9.10932 3.01318 9.32551C2.92339 9.54169 2.90044 9.77944 2.94725 10.0086C2.99405 10.2377 3.10849 10.4479 3.27605 10.6125C3.44361 10.777 3.65673 10.8885 3.88836 10.9328C4.11999 10.9772 4.35969 10.9523 4.57704 10.8614C4.79438 10.7705 4.97957 10.6176 5.1091 10.4222C5.23862 10.2269 5.30665 9.99774 5.30454 9.76397C5.30455 9.60954 5.27368 9.45664 5.21373 9.3141C5.15377 9.17155 5.06591 9.04217 4.95522 8.93346C4.84453 8.82475 4.71321 8.73887 4.56883 8.68073C4.42445 8.6226 4.26987 8.59338 4.11404 8.59477Z" fill="#436F7F"/>
<path d="M4.11404 14.3252C3.87813 14.3253 3.64754 14.3947 3.45154 14.5248C3.25554 14.6549 3.10297 14.8398 3.01318 15.056C2.92339 15.2722 2.90044 15.5099 2.94725 15.7391C2.99405 15.9682 3.10849 16.1784 3.27605 16.343C3.44361 16.5075 3.65673 16.619 3.88836 16.6634C4.11999 16.7077 4.35969 16.6828 4.57704 16.5919C4.79438 16.501 4.97957 16.3481 5.1091 16.1528C5.23862 15.9574 5.30665 15.7282 5.30454 15.4945C5.30455 15.34 5.27368 15.1871 5.21373 15.0446C5.15377 14.902 5.06591 14.7727 4.95522 14.664C4.84453 14.5553 4.71321 14.4694 4.56883 14.4112C4.42445 14.3531 4.26987 14.3239 4.11404 14.3252Z" fill="#436F7F"/>
<path d="M4.11404 20.0557C3.87813 20.0557 3.64754 20.1252 3.45154 20.2553C3.25554 20.3854 3.10297 20.5703 3.01318 20.7865C2.92339 21.0027 2.90044 21.2404 2.94725 21.4695C2.99405 21.6987 3.10849 21.9089 3.27605 22.0734C3.44361 22.238 3.65673 22.3495 3.88836 22.3938C4.11999 22.4381 4.35969 22.4133 4.57704 22.3224C4.79438 22.2315 4.97957 22.0786 5.1091 21.8832C5.23862 21.6878 5.30665 21.4587 5.30454 21.2249C5.30455 21.0705 5.27368 20.9176 5.21373 20.7751C5.15377 20.6325 5.06591 20.5031 4.95522 20.3944C4.84453 20.2857 4.71321 20.1998 4.56883 20.1417C4.42445 20.0835 4.26987 20.0543 4.11404 20.0557Z" fill="#436F7F"/>
<path d="M4.11404 22.9209C3.87813 22.921 3.64754 22.9904 3.45154 23.1205C3.25554 23.2506 3.10297 23.4355 3.01318 23.6517C2.92339 23.8679 2.90044 24.1056 2.94725 24.3348C2.99405 24.5639 3.10849 24.7741 3.27605 24.9387C3.44361 25.1032 3.65673 25.2147 3.88836 25.259C4.11999 25.3034 4.35969 25.2785 4.57704 25.1876C4.79438 25.0967 4.97957 24.9438 5.1091 24.7484C5.23862 24.5531 5.30665 24.3239 5.30454 24.0902C5.30455 23.9357 5.27368 23.7828 5.21373 23.6403C5.15377 23.4978 5.06591 23.3684 4.95522 23.2597C4.84453 23.151 4.71321 23.065 4.56883 23.0069C4.42445 22.9488 4.26987 22.9196 4.11404 22.9209Z" fill="#436F7F"/>
<path d="M4.1136 28.6406C3.87814 28.6406 3.64797 28.7098 3.45219 28.8394C3.25642 28.9691 3.10383 29.1533 3.01372 29.3689C2.92361 29.5845 2.90004 29.8217 2.94597 30.0505C2.99191 30.2794 3.10529 30.4896 3.27179 30.6546C3.43828 30.8196 3.65041 30.9319 3.88134 30.9774C4.11228 31.023 4.35165 30.9996 4.56919 30.9103C4.78673 30.821 4.97266 30.6698 5.10347 30.4758C5.23429 30.2818 5.3041 30.0537 5.3041 29.8204C5.3041 29.6654 5.27331 29.512 5.21349 29.3689C5.15366 29.2257 5.06597 29.0957 4.95542 28.9862C4.84487 28.8766 4.71363 28.7897 4.56919 28.7304C4.42475 28.6711 4.26994 28.6406 4.1136 28.6406Z" fill="#436F7F"/>
<path d="M6.96247 0C6.72701 0 6.49684 0.0691881 6.30106 0.198821C6.10528 0.328453 5.95269 0.512688 5.86258 0.728258C5.77248 0.943829 5.74892 1.18106 5.79485 1.40991C5.84079 1.63875 5.95417 1.84896 6.12067 2.01395C6.28716 2.17894 6.49929 2.2913 6.73022 2.33682C6.96116 2.38234 7.20053 2.35896 7.41807 2.26967C7.63561 2.18038 7.82154 2.02917 7.95235 1.83516C8.08317 1.64115 8.15299 1.41308 8.15299 1.17974C8.15299 0.866855 8.02755 0.566779 7.80429 0.345533C7.58102 0.124287 7.27821 0 6.96247 0Z" fill="#436F7F"/>
<path d="M6.96247 5.73047C6.72701 5.73047 6.49684 5.79966 6.30106 5.92929C6.10528 6.05892 5.95269 6.24316 5.86258 6.45873C5.77248 6.6743 5.74892 6.91153 5.79485 7.14038C5.84079 7.36922 5.95417 7.57943 6.12067 7.74442C6.28716 7.90941 6.49929 8.02177 6.73022 8.06729C6.96116 8.11281 7.20053 8.08943 7.41807 8.00014C7.63561 7.91085 7.82154 7.75964 7.95235 7.56563C8.08317 7.37162 8.15299 7.14354 8.15299 6.91021C8.15299 6.59732 8.02755 6.29725 7.80429 6.076C7.58102 5.85476 7.27821 5.73047 6.96247 5.73047Z" fill="#436F7F"/>
<path d="M6.96243 8.59477C6.72652 8.59478 6.49593 8.66423 6.29993 8.79433C6.10393 8.92444 5.95136 9.10932 5.86157 9.32551C5.77178 9.54169 5.74883 9.77944 5.79564 10.0086C5.84244 10.2377 5.95689 10.4479 6.12445 10.6125C6.29201 10.777 6.50513 10.8885 6.73677 10.9328C6.9684 10.9772 7.2081 10.9523 7.42544 10.8614C7.64278 10.7705 7.82796 10.6176 7.95748 10.4222C8.08701 10.2269 8.15505 9.99774 8.15294 9.76397C8.15295 9.60954 8.12207 9.45664 8.06211 9.3141C8.00216 9.17155 7.9143 9.04217 7.80361 8.93346C7.69292 8.82475 7.56159 8.73887 7.41722 8.68073C7.27284 8.6226 7.11826 8.59338 6.96243 8.59477Z" fill="#436F7F"/>
<path d="M6.96243 11.46C6.72652 11.46 6.49593 11.5295 6.29993 11.6596C6.10393 11.7897 5.95136 11.9746 5.86157 12.1908C5.77178 12.407 5.74883 12.6447 5.79564 12.8738C5.84244 13.103 5.95689 13.3132 6.12445 13.4777C6.29201 13.6423 6.50513 13.7538 6.73677 13.7981C6.9684 13.8424 7.2081 13.8176 7.42544 13.7267C7.64278 13.6358 7.82796 13.4829 7.95748 13.2875C8.08701 13.0921 8.15505 12.863 8.15294 12.6292C8.15295 12.4748 8.12207 12.3219 8.06211 12.1794C8.00216 12.0368 7.9143 11.9074 7.80361 11.7987C7.69292 11.69 7.56159 11.6041 7.41722 11.546C7.27284 11.4879 7.11826 11.4586 6.96243 11.46Z" fill="#436F7F"/>
<path d="M6.96243 14.3252C6.72652 14.3253 6.49593 14.3947 6.29993 14.5248C6.10393 14.6549 5.95136 14.8398 5.86157 15.056C5.77178 15.2722 5.74883 15.5099 5.79564 15.7391C5.84244 15.9682 5.95689 16.1784 6.12445 16.343C6.29201 16.5075 6.50513 16.619 6.73677 16.6634C6.9684 16.7077 7.2081 16.6828 7.42544 16.5919C7.64278 16.501 7.82796 16.3481 7.95748 16.1528C8.08701 15.9574 8.15505 15.7282 8.15294 15.4945C8.15295 15.34 8.12207 15.1871 8.06211 15.0446C8.00216 14.902 7.9143 14.7727 7.80361 14.664C7.69292 14.5553 7.56159 14.4694 7.41722 14.4112C7.27284 14.3531 7.11826 14.3239 6.96243 14.3252Z" fill="#436F7F"/>
<path d="M6.96243 17.1905C6.72652 17.1905 6.49593 17.26 6.29993 17.3901C6.10393 17.5202 5.95136 17.7051 5.86157 17.9212C5.77178 18.1374 5.74883 18.3752 5.79564 18.6043C5.84244 18.8334 5.95689 19.0436 6.12445 19.2082C6.29201 19.3728 6.50513 19.4843 6.73677 19.5286C6.9684 19.5729 7.2081 19.548 7.42544 19.4571C7.64278 19.3662 7.82796 19.2134 7.95748 19.018C8.08701 18.8226 8.15505 18.5935 8.15294 18.3597C8.15295 18.2053 8.12207 18.0524 8.06211 17.9098C8.00216 17.7673 7.9143 17.6379 7.80361 17.5292C7.69292 17.4205 7.56159 17.3346 7.41722 17.2764C7.27284 17.2183 7.11826 17.1891 6.96243 17.1905Z" fill="#436F7F"/>
<path d="M6.96243 25.7862C6.72652 25.7862 6.49593 25.8557 6.29993 25.9858C6.10393 26.1159 5.95136 26.3008 5.86157 26.5169C5.77178 26.7331 5.74883 26.9709 5.79564 27.2C5.84244 27.4291 5.95689 27.6393 6.12445 27.8039C6.29201 27.9684 6.50513 28.08 6.73677 28.1243C6.9684 28.1686 7.2081 28.1437 7.42544 28.0528C7.64278 27.9619 7.82796 27.8091 7.95748 27.6137C8.08701 27.4183 8.15505 27.1892 8.15294 26.9554C8.15295 26.801 8.12207 26.6481 8.06211 26.5055C8.00216 26.363 7.9143 26.2336 7.80361 26.1249C7.69292 26.0162 7.56159 25.9303 7.41722 25.8721C7.27284 25.814 7.11826 25.7848 6.96243 25.7862Z" fill="#436F7F"/>
<path d="M9.85396 2.86523C9.6185 2.86523 9.38834 2.93442 9.19256 3.06405C8.99678 3.19369 8.84419 3.37792 8.75409 3.59349C8.66398 3.80906 8.64039 4.04629 8.68632 4.27514C8.73226 4.50399 8.84564 4.7142 9.01214 4.87919C9.17863 5.04418 9.39076 5.15654 9.62169 5.20206C9.85263 5.24758 10.092 5.2242 10.3096 5.13491C10.5271 5.04561 10.713 4.8944 10.8438 4.70039C10.9746 4.50639 11.0445 4.27831 11.0445 4.04498C11.0445 3.73209 10.919 3.43201 10.6958 3.21077C10.4725 2.98952 10.1697 2.86523 9.85396 2.86523Z" fill="#436F7F"/>
<path d="M9.85396 5.73047C9.6185 5.73047 9.38834 5.79966 9.19256 5.92929C8.99678 6.05892 8.84419 6.24316 8.75409 6.45873C8.66398 6.6743 8.64039 6.91153 8.68632 7.14038C8.73226 7.36922 8.84564 7.57943 9.01214 7.74442C9.17863 7.90941 9.39076 8.02177 9.62169 8.06729C9.85263 8.11281 10.092 8.08943 10.3096 8.00014C10.5271 7.91085 10.713 7.75964 10.8438 7.56563C10.9746 7.37162 11.0445 7.14354 11.0445 6.91021C11.0445 6.59732 10.919 6.29725 10.6958 6.076C10.4725 5.85476 10.1697 5.73047 9.85396 5.73047Z" fill="#436F7F"/>
<path d="M9.85391 8.59477C9.618 8.59478 9.38742 8.66423 9.19141 8.79433C8.99541 8.92444 8.84282 9.10932 8.75304 9.32551C8.66325 9.54169 8.64032 9.77944 8.68712 10.0086C8.73393 10.2377 8.84836 10.4479 9.01592 10.6125C9.18348 10.777 9.3966 10.8885 9.62823 10.9328C9.85987 10.9772 10.0996 10.9523 10.3169 10.8614C10.5343 10.7705 10.7194 10.6176 10.849 10.4222C10.9785 10.2269 11.0465 9.99774 11.0444 9.76397C11.0444 9.60954 11.0136 9.45664 10.9536 9.3141C10.8937 9.17155 10.8058 9.04217 10.6951 8.93346C10.5844 8.82475 10.4531 8.73887 10.3087 8.68073C10.1643 8.6226 10.0097 8.59338 9.85391 8.59477Z" fill="#436F7F"/>
<path d="M9.85391 17.1905C9.618 17.1905 9.38742 17.26 9.19141 17.3901C8.99541 17.5202 8.84282 17.7051 8.75304 17.9212C8.66325 18.1374 8.64032 18.3752 8.68712 18.6043C8.73393 18.8334 8.84836 19.0436 9.01592 19.2082C9.18348 19.3728 9.3966 19.4843 9.62823 19.5286C9.85987 19.5729 10.0996 19.548 10.3169 19.4571C10.5343 19.3662 10.7194 19.2134 10.849 19.018C10.9785 18.8226 11.0465 18.5935 11.0444 18.3597C11.0444 18.2053 11.0136 18.0524 10.9536 17.9098C10.8937 17.7673 10.8058 17.6379 10.6951 17.5292C10.5844 17.4205 10.4531 17.3346 10.3087 17.2764C10.1643 17.2183 10.0097 17.1891 9.85391 17.1905Z" fill="#436F7F"/>
<path d="M9.85396 28.6406C9.6185 28.6406 9.38834 28.7098 9.19256 28.8394C8.99678 28.9691 8.84419 29.1533 8.75409 29.3689C8.66398 29.5845 8.64039 29.8217 8.68632 30.0505C8.73226 30.2794 8.84564 30.4896 9.01214 30.6546C9.17863 30.8196 9.39076 30.9319 9.62169 30.9774C9.85263 31.023 10.092 30.9996 10.3096 30.9103C10.5271 30.821 10.713 30.6698 10.8438 30.4758C10.9746 30.2818 11.0445 30.0537 11.0445 29.8204C11.0445 29.5075 10.919 29.2074 10.6958 28.9862C10.4725 28.7649 10.1697 28.6406 9.85396 28.6406Z" fill="#436F7F"/>
<path d="M12.7449 0C12.5095 0 12.2793 0.0691881 12.0836 0.198821C11.8878 0.328453 11.7352 0.512688 11.6451 0.728258C11.555 0.943829 11.5314 1.18106 11.5773 1.40991C11.6233 1.63875 11.7366 1.84896 11.9031 2.01395C12.0696 2.17894 12.2817 2.2913 12.5127 2.33682C12.7436 2.38234 12.983 2.35896 13.2005 2.26967C13.4181 2.18038 13.604 2.02917 13.7348 1.83516C13.8656 1.64115 13.9354 1.41308 13.9354 1.17974C13.9354 0.866855 13.81 0.566779 13.5868 0.345533C13.3635 0.124287 13.0607 0 12.7449 0Z" fill="#436F7F"/>
<path d="M12.7449 2.86523C12.5095 2.86523 12.2793 2.93442 12.0836 3.06405C11.8878 3.19369 11.7352 3.37792 11.6451 3.59349C11.555 3.80906 11.5314 4.04629 11.5773 4.27514C11.6233 4.50399 11.7366 4.7142 11.9031 4.87919C12.0696 5.04418 12.2817 5.15654 12.5127 5.20206C12.7436 5.24758 12.983 5.2242 13.2005 5.13491C13.4181 5.04561 13.604 4.8944 13.7348 4.70039C13.8656 4.50639 13.9354 4.27831 13.9354 4.04498C13.9354 3.73209 13.81 3.43201 13.5868 3.21077C13.3635 2.98952 13.0607 2.86523 12.7449 2.86523Z" fill="#436F7F"/>
<path d="M12.7448 8.59473C12.5089 8.59474 12.2783 8.66418 12.0823 8.79429C11.8863 8.92439 11.7337 9.10928 11.6439 9.32546C11.5541 9.54165 11.5312 9.77939 11.578 10.0085C11.6248 10.2377 11.7392 10.4478 11.9068 10.6124C12.0743 10.777 12.2875 10.8885 12.5191 10.9328C12.7507 10.9771 12.9904 10.9523 13.2078 10.8613C13.4251 10.7704 13.6103 10.6176 13.7398 10.4222C13.8694 10.2268 13.9374 9.9977 13.9353 9.76393C13.9325 9.45287 13.8058 9.1555 13.5829 8.93653C13.3599 8.71756 13.0587 8.59471 12.7448 8.59473Z" fill="#436F7F"/>
<path d="M12.7448 11.46C12.5089 11.46 12.2783 11.5294 12.0823 11.6596C11.8863 11.7897 11.7337 11.9745 11.6439 12.1907C11.5541 12.4069 11.5312 12.6447 11.578 12.8738C11.6248 13.1029 11.7392 13.3131 11.9068 13.4777C12.0743 13.6422 12.2875 13.7537 12.5191 13.7981C12.7507 13.8424 12.9904 13.8175 13.2078 13.7266C13.4251 13.6357 13.6103 13.4829 13.7398 13.2875C13.8694 13.0921 13.9374 12.863 13.9353 12.6292C13.9325 12.3181 13.8058 12.0208 13.5829 11.8018C13.3599 11.5828 13.0587 11.4599 12.7448 11.46Z" fill="#436F7F"/>
<path d="M12.7448 17.1904C12.5089 17.1904 12.2783 17.2599 12.0823 17.39C11.8863 17.5201 11.7337 17.705 11.6439 17.9212C11.5541 18.1374 11.5312 18.3751 11.578 18.6043C11.6248 18.8334 11.7392 19.0436 11.9068 19.2081C12.0743 19.3727 12.2875 19.4842 12.5191 19.5285C12.7507 19.5729 12.9904 19.548 13.2078 19.4571C13.4251 19.3662 13.6103 19.2133 13.7398 19.0179C13.8694 18.8225 13.9374 18.5934 13.9353 18.3597C13.9325 18.0486 13.8058 17.7512 13.5829 17.5323C13.3599 17.3133 13.0587 17.1904 12.7448 17.1904Z" fill="#436F7F"/>
<path d="M12.7448 22.9209C12.5089 22.9209 12.2783 22.9904 12.0823 23.1205C11.8863 23.2506 11.7337 23.4355 11.6439 23.6517C11.5541 23.8679 11.5312 24.1056 11.578 24.3347C11.6248 24.5639 11.7392 24.7741 11.9068 24.9386C12.0743 25.1032 12.2875 25.2147 12.5191 25.259C12.7507 25.3033 12.9904 25.2785 13.2078 25.1876C13.4251 25.0966 13.6103 24.9438 13.7398 24.7484C13.8694 24.553 13.9374 24.3239 13.9353 24.0901C13.9325 23.7791 13.8058 23.4817 13.5829 23.2627C13.3599 23.0437 13.0587 22.9209 12.7448 22.9209Z" fill="#436F7F"/>
<path d="M12.7448 25.7861C12.5089 25.7861 12.2783 25.8556 12.0823 25.9857C11.8863 26.1158 11.7337 26.3007 11.6439 26.5169C11.5541 26.7331 11.5312 26.9708 11.578 27.2C11.6248 27.4291 11.7392 27.6393 11.9068 27.8038C12.0743 27.9684 12.2875 28.0799 12.5191 28.1242C12.7507 28.1686 12.9904 28.1437 13.2078 28.0528C13.4251 27.9619 13.6103 27.809 13.7398 27.6136C13.8694 27.4183 13.9374 27.1891 13.9353 26.9554C13.9325 26.6443 13.8058 26.3469 13.5829 26.1279C13.3599 25.909 13.0587 25.7861 12.7448 25.7861Z" fill="#436F7F"/>
<path d="M15.6363 4.79129e-05C15.4008 4.79129e-05 15.1707 0.069236 14.9749 0.198868C14.7791 0.328501 14.6265 0.512735 14.5364 0.728306C14.4463 0.943877 14.4227 1.18111 14.4687 1.40995C14.5146 1.6388 14.628 1.84901 14.7945 2.014C14.961 2.17899 15.1731 2.29135 15.404 2.33687C15.635 2.38239 15.8744 2.35901 16.0919 2.26972C16.3094 2.18043 16.4954 2.02922 16.6262 1.83521C16.757 1.6412 16.8268 1.41312 16.8268 1.17979C16.8282 1.02447 16.7984 0.870435 16.7391 0.726667C16.6798 0.582898 16.5921 0.452262 16.4813 0.342431C16.3705 0.2326 16.2386 0.14576 16.0936 0.0869696C15.9485 0.0281795 15.793 -0.00135777 15.6363 4.79129e-05Z" fill="#436F7F"/>
<path d="M15.6363 5.73052C15.4008 5.73052 15.1707 5.7997 14.9749 5.92934C14.7791 6.05897 14.6265 6.2432 14.5364 6.45878C14.4463 6.67435 14.4227 6.91157 14.4687 7.14042C14.5146 7.36927 14.628 7.57948 14.7945 7.74447C14.961 7.90946 15.1731 8.02182 15.404 8.06734C15.635 8.11286 15.8744 8.08948 16.0919 8.00019C16.3094 7.9109 16.4954 7.75969 16.6262 7.56568C16.757 7.37167 16.8268 7.14359 16.8268 6.91026C16.8282 6.75494 16.7984 6.6009 16.7391 6.45714C16.6798 6.31337 16.5921 6.18273 16.4813 6.0729C16.3705 5.96307 16.2386 5.87623 16.0936 5.81744C15.9485 5.75865 15.793 5.72911 15.6363 5.73052Z" fill="#436F7F"/>
<path d="M15.6363 11.46C15.4003 11.46 15.1698 11.5295 14.9738 11.6596C14.7778 11.7897 14.6252 11.9746 14.5354 12.1908C14.4456 12.407 14.4227 12.6447 14.4695 12.8738C14.5163 13.103 14.6307 13.3132 14.7983 13.4777C14.9658 13.6423 15.179 13.7538 15.4106 13.7981C15.6422 13.8424 15.8819 13.8176 16.0993 13.7267C16.3166 13.6358 16.5018 13.4829 16.6313 13.2875C16.7608 13.0921 16.8289 12.863 16.8268 12.6292C16.8268 12.4748 16.7959 12.3219 16.736 12.1794C16.676 12.0368 16.5881 11.9074 16.4774 11.7987C16.3667 11.69 16.2354 11.6041 16.091 11.546C15.9467 11.4879 15.7921 11.4586 15.6363 11.46Z" fill="#436F7F"/>
<path d="M15.6363 14.3252C15.4003 14.3253 15.1698 14.3947 14.9738 14.5248C14.7778 14.6549 14.6252 14.8398 14.5354 15.056C14.4456 15.2722 14.4227 15.5099 14.4695 15.7391C14.5163 15.9682 14.6307 16.1784 14.7983 16.343C14.9658 16.5075 15.179 16.619 15.4106 16.6634C15.6422 16.7077 15.8819 16.6828 16.0993 16.5919C16.3166 16.501 16.5018 16.3481 16.6313 16.1528C16.7608 15.9574 16.8289 15.7282 16.8268 15.4945C16.8268 15.34 16.7959 15.1871 16.736 15.0446C16.676 14.902 16.5881 14.7727 16.4774 14.664C16.3667 14.5553 16.2354 14.4694 16.091 14.4112C15.9467 14.3531 15.7921 14.3239 15.6363 14.3252Z" fill="#436F7F"/>
<path d="M15.6363 17.1905C15.4003 17.1905 15.1698 17.26 14.9738 17.3901C14.7778 17.5202 14.6252 17.7051 14.5354 17.9212C14.4456 18.1374 14.4227 18.3752 14.4695 18.6043C14.5163 18.8334 14.6307 19.0436 14.7983 19.2082C14.9658 19.3728 15.179 19.4843 15.4106 19.5286C15.6422 19.5729 15.8819 19.548 16.0993 19.4571C16.3166 19.3662 16.5018 19.2134 16.6313 19.018C16.7608 18.8226 16.8289 18.5935 16.8268 18.3597C16.8268 18.2053 16.7959 18.0524 16.736 17.9098C16.676 17.7673 16.5881 17.6379 16.4774 17.5292C16.3667 17.4205 16.2354 17.3346 16.091 17.2764C15.9467 17.2183 15.7921 17.1891 15.6363 17.1905Z" fill="#436F7F"/>
<path d="M15.6363 20.0557C15.4003 20.0557 15.1698 20.1252 14.9738 20.2553C14.7778 20.3854 14.6252 20.5703 14.5354 20.7865C14.4456 21.0027 14.4227 21.2404 14.4695 21.4695C14.5163 21.6987 14.6307 21.9089 14.7983 22.0734C14.9658 22.238 15.179 22.3495 15.4106 22.3938C15.6422 22.4381 15.8819 22.4133 16.0993 22.3224C16.3166 22.2315 16.5018 22.0786 16.6313 21.8832C16.7608 21.6878 16.8289 21.4587 16.8268 21.2249C16.8268 21.0705 16.7959 20.9176 16.736 20.7751C16.676 20.6325 16.5881 20.5031 16.4774 20.3944C16.3667 20.2857 16.2354 20.1998 16.091 20.1417C15.9467 20.0835 15.7921 20.0543 15.6363 20.0557Z" fill="#436F7F"/>
<path d="M15.6363 25.7862C15.4003 25.7862 15.1698 25.8557 14.9738 25.9858C14.7778 26.1159 14.6252 26.3008 14.5354 26.5169C14.4456 26.7331 14.4227 26.9709 14.4695 27.2C14.5163 27.4291 14.6307 27.6393 14.7983 27.8039C14.9658 27.9684 15.179 28.08 15.4106 28.1243C15.6422 28.1686 15.8819 28.1437 16.0993 28.0528C16.3166 27.9619 16.5018 27.8091 16.6313 27.6137C16.7608 27.4183 16.8289 27.1892 16.8268 26.9554C16.8268 26.801 16.7959 26.6481 16.736 26.5055C16.676 26.363 16.5881 26.2336 16.4774 26.1249C16.3667 26.0162 16.2354 25.9303 16.091 25.8721C15.9467 25.814 15.7921 25.7848 15.6363 25.7862Z" fill="#436F7F"/>
<path d="M15.6362 28.6408C15.4009 28.6492 15.1735 28.7266 14.9826 28.8632C14.7918 28.9997 14.646 29.1892 14.5638 29.4078C14.4816 29.6264 14.4667 29.8642 14.5208 30.0912C14.575 30.3182 14.6959 30.5242 14.8682 30.6832C15.0404 30.8421 15.2564 30.9469 15.4888 30.9842C15.7211 31.0216 15.9595 30.9899 16.1736 30.893C16.3878 30.7962 16.5682 30.6386 16.692 30.4402C16.8158 30.2418 16.8774 30.0115 16.8692 29.7784C16.8692 29.4655 16.7438 29.1654 16.5205 28.9442C16.2972 28.7229 15.9944 28.5986 15.6787 28.5986" fill="#436F7F"/>
<path d="M18.5275 4.7049e-05C18.2916 -0.00204026 18.0604 0.0653673 17.8633 0.193724C17.6661 0.322081 17.5119 0.505598 17.4201 0.720976C17.3284 0.936355 17.3033 1.17389 17.348 1.40343C17.3927 1.63297 17.5053 1.84416 17.6713 2.01021C17.8374 2.17625 18.0495 2.28965 18.2807 2.33604C18.5119 2.38242 18.7519 2.35969 18.97 2.27072C19.1882 2.18174 19.3747 2.03053 19.506 1.8363C19.6373 1.64207 19.7074 1.41357 19.7074 1.17979C19.7075 0.868718 19.5835 0.570222 19.3625 0.349277C19.1415 0.128331 18.8414 0.00282448 18.5275 4.7049e-05Z" fill="#436F7F"/>
<path d="M18.5275 2.86528C18.2916 2.86319 18.0604 2.9306 17.8633 3.05896C17.6661 3.18732 17.5119 3.37083 17.4201 3.58621C17.3284 3.80159 17.3033 4.03912 17.348 4.26866C17.3927 4.4982 17.5053 4.7094 17.6713 4.87544C17.8374 5.04149 18.0495 5.15489 18.2807 5.20127C18.5119 5.24765 18.7519 5.22493 18.97 5.13595C19.1882 5.04698 19.3747 4.89577 19.506 4.70154C19.6373 4.5073 19.7074 4.2788 19.7074 4.04503C19.7075 3.73395 19.5835 3.43546 19.3625 3.21451C19.1415 2.99357 18.8414 2.86806 18.5275 2.86528Z" fill="#436F7F"/>
<path d="M18.5275 8.59477C18.2912 8.59269 18.0595 8.66036 17.8621 8.78919C17.6647 8.91802 17.5105 9.10215 17.4191 9.31815C17.3277 9.53414 17.3032 9.77222 17.3488 10.002C17.3944 10.2319 17.508 10.443 17.6751 10.6087C17.8422 10.7743 18.0553 10.8869 18.2873 10.932C18.5192 10.9772 18.7594 10.953 18.9774 10.8624C19.1954 10.7718 19.3812 10.619 19.5112 10.4233C19.6412 10.2277 19.7095 9.99819 19.7074 9.76397C19.7046 9.45473 19.5794 9.15892 19.3587 8.94024C19.1381 8.72156 18.8396 8.59752 18.5275 8.59477Z" fill="#436F7F"/>
<path d="M18.5275 14.3252C18.2912 14.3232 18.0595 14.3909 17.8621 14.5197C17.6647 14.6485 17.5105 14.8327 17.4191 15.0486C17.3277 15.2646 17.3032 15.5027 17.3488 15.7325C17.3944 15.9624 17.508 16.1735 17.6751 16.3392C17.8422 16.5048 18.0553 16.6174 18.2873 16.6625C18.5192 16.7077 18.7594 16.6835 18.9774 16.5929C19.1954 16.5023 19.3812 16.3495 19.5112 16.1538C19.6412 15.9582 19.7095 15.7287 19.7074 15.4945C19.7046 15.1852 19.5794 14.8894 19.3587 14.6707C19.1381 14.4521 18.8396 14.328 18.5275 14.3252Z" fill="#436F7F"/>
<path d="M18.5275 20.0557C18.2912 20.0536 18.0595 20.1213 17.8621 20.2502C17.6647 20.379 17.5105 20.5631 17.4191 20.7791C17.3277 20.9951 17.3032 21.2332 17.3488 21.463C17.3944 21.6928 17.508 21.904 17.6751 22.0696C17.8422 22.2353 18.0553 22.3478 18.2873 22.393C18.5192 22.4382 18.7594 22.414 18.9774 22.3234C19.1954 22.2328 19.3812 22.0799 19.5112 21.8843C19.6412 21.6887 19.7095 21.4592 19.7074 21.2249C19.7046 20.9157 19.5794 20.6199 19.3587 20.4012C19.1381 20.1825 18.8396 20.0585 18.5275 20.0557Z" fill="#436F7F"/>
<path d="M18.5275 22.9209C18.2912 22.9189 18.0595 22.9866 17.8621 23.1154C17.6647 23.2442 17.5105 23.4284 17.4191 23.6444C17.3277 23.8603 17.3032 24.0984 17.3488 24.3282C17.3944 24.5581 17.508 24.7692 17.6751 24.9349C17.8422 25.1005 18.0553 25.2131 18.2873 25.2583C18.5192 25.3034 18.7594 25.2792 18.9774 25.1886C19.1954 25.098 19.3812 24.9452 19.5112 24.7495C19.6412 24.5539 19.7095 24.3244 19.7074 24.0902C19.7046 23.7809 19.5794 23.4851 19.3587 23.2664C19.1381 23.0478 18.8396 22.9237 18.5275 22.9209Z" fill="#436F7F"/>
<path d="M18.5275 25.7862C18.2912 25.7841 18.0595 25.8518 17.8621 25.9806C17.6647 26.1095 17.5105 26.2936 17.4191 26.5096C17.3277 26.7256 17.3032 26.9637 17.3488 27.1935C17.3944 27.4233 17.508 27.6345 17.6751 27.8001C17.8422 27.9657 18.0553 28.0783 18.2873 28.1235C18.5192 28.1687 18.7594 28.1444 18.9774 28.0538C19.1954 27.9632 19.3812 27.8104 19.5112 27.6148C19.6412 27.4192 19.7095 27.1896 19.7074 26.9554C19.7046 26.6462 19.5794 26.3504 19.3587 26.1317C19.1381 25.913 18.8396 25.7889 18.5275 25.7862Z" fill="#436F7F"/>
<path d="M18.5273 28.6406C18.2116 28.6406 17.9087 28.7649 17.6855 28.9862C17.4622 29.2074 17.3368 29.5075 17.3368 29.8204C17.3368 30.1333 17.4622 30.4333 17.6855 30.6546C17.9087 30.8758 18.2116 31.0001 18.5273 31.0001C18.843 31.0001 19.1458 30.8758 19.3691 30.6546C19.5924 30.4333 19.7178 30.1333 19.7178 29.8204C19.7178 29.5075 19.5924 29.2074 19.3691 28.9862C19.1458 28.7649 18.843 28.6406 18.5273 28.6406Z" fill="#436F7F"/>
<path d="M21.4184 4.7049e-05C21.1825 -0.00204026 20.9513 0.0653673 20.7541 0.193724C20.557 0.322081 20.4027 0.505598 20.311 0.720976C20.2193 0.936355 20.1942 1.17389 20.2389 1.40343C20.2836 1.63297 20.3961 1.84416 20.5622 2.01021C20.7283 2.17625 20.9404 2.28965 21.1716 2.33604C21.4028 2.38242 21.6427 2.35969 21.8609 2.27072C22.079 2.18174 22.2656 2.03053 22.3969 1.8363C22.5282 1.64207 22.5983 1.41357 22.5983 1.17979C22.5983 0.868718 22.4743 0.570222 22.2534 0.349277C22.0324 0.128331 21.7323 0.00282448 21.4184 4.7049e-05Z" fill="#436F7F"/>
<path d="M21.4189 14.3252C21.1825 14.3232 20.9509 14.3909 20.7535 14.5197C20.5561 14.6485 20.4019 14.8327 20.3104 15.0486C20.219 15.2646 20.1945 15.5027 20.2401 15.7325C20.2857 15.9624 20.3993 16.1735 20.5665 16.3392C20.7336 16.5048 20.9467 16.6174 21.1786 16.6625C21.4105 16.7077 21.6508 16.6835 21.8688 16.5929C22.0867 16.5023 22.2725 16.3495 22.4025 16.1538C22.5325 15.9582 22.6009 15.7287 22.5988 15.4945C22.596 15.1852 22.4708 14.8894 22.2501 14.6707C22.0294 14.4521 21.7309 14.328 21.4189 14.3252Z" fill="#436F7F"/>
<path d="M21.4189 17.1905C21.1825 17.1884 20.9509 17.2561 20.7535 17.3849C20.5561 17.5138 20.4019 17.6979 20.3104 17.9139C20.219 18.1299 20.1945 18.368 20.2401 18.5978C20.2857 18.8276 20.3993 19.0388 20.5665 19.2044C20.7336 19.37 20.9467 19.4826 21.1786 19.5278C21.4105 19.573 21.6508 19.5487 21.8688 19.4581C22.0867 19.3675 22.2725 19.2147 22.4025 19.0191C22.5325 18.8235 22.6009 18.5939 22.5988 18.3597C22.596 18.0505 22.4708 17.7547 22.2501 17.536C22.0294 17.3173 21.7309 17.1932 21.4189 17.1905Z" fill="#436F7F"/>
<path d="M21.4189 20.0557C21.1825 20.0536 20.9509 20.1213 20.7535 20.2502C20.5561 20.379 20.4019 20.5631 20.3104 20.7791C20.219 20.9951 20.1945 21.2332 20.2401 21.463C20.2857 21.6928 20.3993 21.904 20.5665 22.0696C20.7336 22.2353 20.9467 22.3478 21.1786 22.393C21.4105 22.4382 21.6508 22.414 21.8688 22.3234C22.0867 22.2328 22.2725 22.0799 22.4025 21.8843C22.5325 21.6887 22.6009 21.4592 22.5988 21.2249C22.596 20.9157 22.4708 20.6199 22.2501 20.4012C22.0294 20.1825 21.7309 20.0585 21.4189 20.0557Z" fill="#436F7F"/>
<path d="M21.4189 22.9209C21.1825 22.9189 20.9509 22.9866 20.7535 23.1154C20.5561 23.2442 20.4019 23.4284 20.3104 23.6444C20.219 23.8603 20.1945 24.0984 20.2401 24.3282C20.2857 24.5581 20.3993 24.7692 20.5665 24.9349C20.7336 25.1005 20.9467 25.2131 21.1786 25.2583C21.4105 25.3034 21.6508 25.2792 21.8688 25.1886C22.0867 25.098 22.2725 24.9452 22.4025 24.7495C22.5325 24.5539 22.6009 24.3244 22.5988 24.0902C22.596 23.7809 22.4708 23.4851 22.2501 23.2664C22.0294 23.0478 21.7309 22.9237 21.4189 22.9209Z" fill="#436F7F"/>
<path d="M21.4189 25.7862C21.1825 25.7841 20.9509 25.8518 20.7535 25.9806C20.5561 26.1095 20.4019 26.2936 20.3104 26.5096C20.219 26.7256 20.1945 26.9637 20.2401 27.1935C20.2857 27.4233 20.3993 27.6345 20.5665 27.8001C20.7336 27.9657 20.9467 28.0783 21.1786 28.1235C21.4105 28.1687 21.6508 28.1444 21.8688 28.0538C22.0867 27.9632 22.2725 27.8104 22.4025 27.6148C22.5325 27.4192 22.6009 27.1896 22.5988 26.9554C22.596 26.6462 22.4708 26.3504 22.2501 26.1317C22.0294 25.913 21.7309 25.7889 21.4189 25.7862Z" fill="#436F7F"/>
<path d="M21.4186 28.6406C21.1029 28.6406 20.8001 28.7649 20.5768 28.9862C20.3536 29.2074 20.2281 29.5075 20.2281 29.8204C20.2281 30.1333 20.3536 30.4333 20.5768 30.6546C20.8001 30.8758 21.1029 31.0001 21.4186 31.0001C21.7344 31.0001 22.0372 30.8758 22.2605 30.6546C22.4837 30.4333 22.6091 30.1333 22.6091 29.8204C22.6091 29.5075 22.4837 29.2074 22.2605 28.9862C22.0372 28.7649 21.7344 28.6406 21.4186 28.6406Z" fill="#436F7F"/>
<path d="M24.3099 5.73052C24.074 5.72843 23.8428 5.79584 23.6456 5.92419C23.4484 6.05255 23.2942 6.23607 23.2025 6.45145C23.1107 6.66682 23.0856 6.90436 23.1304 7.1339C23.1751 7.36343 23.2876 7.57463 23.4537 7.74068C23.6197 7.90672 23.8318 8.02012 24.0631 8.0665C24.2943 8.11289 24.5342 8.09013 24.7524 8.00115C24.9705 7.91218 25.1571 7.761 25.2884 7.56677C25.4197 7.37254 25.4897 7.14404 25.4898 6.91026C25.4898 6.59919 25.3658 6.30069 25.1448 6.07975C24.9239 5.8588 24.6238 5.73329 24.3099 5.73052Z" fill="#436F7F"/>
<path d="M24.3099 8.59477C24.0735 8.59269 23.8419 8.66036 23.6445 8.78919C23.4471 8.91802 23.2928 9.10215 23.2014 9.31815C23.11 9.53414 23.0855 9.77222 23.1311 10.002C23.1767 10.2319 23.2903 10.443 23.4575 10.6087C23.6246 10.7743 23.8377 10.8869 24.0696 10.932C24.3015 10.9772 24.5418 10.953 24.7597 10.8624C24.9777 10.7718 25.1635 10.619 25.2935 10.4233C25.4235 10.2277 25.4918 9.99819 25.4897 9.76397C25.4869 9.45473 25.3618 9.15892 25.1411 8.94024C24.9204 8.72156 24.6219 8.59752 24.3099 8.59477Z" fill="#436F7F"/>
<path d="M24.3099 11.46C24.0735 11.4579 23.8419 11.5256 23.6445 11.6545C23.4471 11.7833 23.2928 11.9674 23.2014 12.1834C23.11 12.3994 23.0855 12.6375 23.1311 12.8673C23.1767 13.0971 23.2903 13.3083 23.4575 13.4739C23.6246 13.6396 23.8377 13.7521 24.0696 13.7973C24.3015 13.8425 24.5418 13.8183 24.7597 13.7277C24.9777 13.6371 25.1635 13.4842 25.2935 13.2886C25.4235 13.093 25.4918 12.8635 25.4897 12.6292C25.4869 12.32 25.3618 12.0242 25.1411 11.8055C24.9204 11.5868 24.6219 11.4628 24.3099 11.46Z" fill="#436F7F"/>
<path d="M24.3099 14.3252C24.0735 14.3232 23.8419 14.3909 23.6445 14.5197C23.4471 14.6485 23.2928 14.8327 23.2014 15.0486C23.11 15.2646 23.0855 15.5027 23.1311 15.7325C23.1767 15.9624 23.2903 16.1735 23.4575 16.3392C23.6246 16.5048 23.8377 16.6174 24.0696 16.6625C24.3015 16.7077 24.5418 16.6835 24.7597 16.5929C24.9777 16.5023 25.1635 16.3495 25.2935 16.1538C25.4235 15.9582 25.4918 15.7287 25.4897 15.4945C25.4869 15.1852 25.3618 14.8894 25.1411 14.6707C24.9204 14.4521 24.6219 14.328 24.3099 14.3252Z" fill="#436F7F"/>
<path d="M24.3099 17.1905C24.0735 17.1884 23.8419 17.2561 23.6445 17.3849C23.4471 17.5138 23.2928 17.6979 23.2014 17.9139C23.11 18.1299 23.0855 18.368 23.1311 18.5978C23.1767 18.8276 23.2903 19.0388 23.4575 19.2044C23.6246 19.37 23.8377 19.4826 24.0696 19.5278C24.3015 19.573 24.5418 19.5487 24.7597 19.4581C24.9777 19.3675 25.1635 19.2147 25.2935 19.0191C25.4235 18.8235 25.4918 18.5939 25.4897 18.3597C25.4869 18.0505 25.3618 17.7547 25.1411 17.536C24.9204 17.3173 24.6219 17.1932 24.3099 17.1905Z" fill="#436F7F"/>
<path d="M24.3099 20.0557C24.0735 20.0536 23.8419 20.1213 23.6445 20.2502C23.4471 20.379 23.2928 20.5631 23.2014 20.7791C23.11 20.9951 23.0855 21.2332 23.1311 21.463C23.1767 21.6928 23.2903 21.904 23.4575 22.0696C23.6246 22.2353 23.8377 22.3478 24.0696 22.393C24.3015 22.4382 24.5418 22.414 24.7597 22.3234C24.9777 22.2328 25.1635 22.0799 25.2935 21.8843C25.4235 21.6887 25.4918 21.4592 25.4897 21.2249C25.4869 20.9157 25.3618 20.6199 25.1411 20.4012C24.9204 20.1825 24.6219 20.0585 24.3099 20.0557Z" fill="#436F7F"/>
<path d="M24.3099 22.9209C24.0735 22.9189 23.8419 22.9866 23.6445 23.1154C23.4471 23.2442 23.2928 23.4284 23.2014 23.6444C23.11 23.8603 23.0855 24.0984 23.1311 24.3282C23.1767 24.5581 23.2903 24.7692 23.4575 24.9349C23.6246 25.1005 23.8377 25.2131 24.0696 25.2583C24.3015 25.3034 24.5418 25.2792 24.7597 25.1886C24.9777 25.098 25.1635 24.9452 25.2935 24.7495C25.4235 24.5539 25.4918 24.3244 25.4897 24.0902C25.4869 23.7809 25.3618 23.4851 25.1411 23.2664C24.9204 23.0478 24.6219 22.9237 24.3099 22.9209Z" fill="#436F7F"/>
<path d="M24.3099 25.7862C24.0735 25.7841 23.8419 25.8518 23.6445 25.9806C23.4471 26.1095 23.2928 26.2936 23.2014 26.5096C23.11 26.7256 23.0855 26.9637 23.1311 27.1935C23.1767 27.4233 23.2903 27.6345 23.4575 27.8001C23.6246 27.9657 23.8377 28.0783 24.0696 28.1235C24.3015 28.1687 24.5418 28.1444 24.7597 28.0538C24.9777 27.9632 25.1635 27.8104 25.2935 27.6148C25.4235 27.4192 25.4918 27.1896 25.4897 26.9554C25.4869 26.6462 25.3618 26.3504 25.1411 26.1317C24.9204 25.913 24.6219 25.7889 24.3099 25.7862Z" fill="#436F7F"/>
<path d="M24.3099 28.6407C24.074 28.6386 23.8428 28.706 23.6456 28.8343C23.4484 28.9627 23.2942 29.1462 23.2025 29.3616C23.1107 29.577 23.0856 29.8145 23.1304 30.0441C23.1751 30.2736 23.2876 30.4848 23.4537 30.6508C23.6197 30.8169 23.8318 30.9303 24.0631 30.9767C24.2943 31.023 24.5342 31.0003 24.7524 30.9113C24.9705 30.8223 25.1571 30.6712 25.2884 30.4769C25.4197 30.2827 25.4897 30.0542 25.4898 29.8204C25.4898 29.5093 25.3658 29.2108 25.1448 28.9899C24.9239 28.769 24.6238 28.6434 24.3099 28.6407Z" fill="#436F7F"/>
<path d="M27.2014 4.7049e-05C26.9655 -0.00204026 26.7343 0.0653673 26.5371 0.193724C26.3399 0.322081 26.1857 0.505598 26.0939 0.720976C26.0022 0.936355 25.9771 1.17389 26.0218 1.40343C26.0666 1.63297 26.1791 1.84416 26.3452 2.01021C26.5112 2.17625 26.7233 2.28965 26.9545 2.33604C27.1858 2.38242 27.4257 2.35969 27.6438 2.27072C27.862 2.18174 28.0486 2.03053 28.1799 1.8363C28.3111 1.64207 28.3812 1.41357 28.3812 1.17979C28.3812 0.868718 28.2573 0.570222 28.0363 0.349277C27.8153 0.128331 27.5153 0.00282448 27.2014 4.7049e-05Z" fill="#436F7F"/>
<path d="M27.2014 2.86528C26.9655 2.86319 26.7343 2.9306 26.5371 3.05896C26.3399 3.18732 26.1857 3.37083 26.0939 3.58621C26.0022 3.80159 25.9771 4.03912 26.0218 4.26866C26.0666 4.4982 26.1791 4.7094 26.3452 4.87544C26.5112 5.04149 26.7233 5.15489 26.9545 5.20127C27.1858 5.24765 27.4257 5.22493 27.6438 5.13595C27.862 5.04698 28.0486 4.89577 28.1799 4.70154C28.3111 4.5073 28.3812 4.2788 28.3812 4.04503C28.3812 3.73395 28.2573 3.43546 28.0363 3.21451C27.8153 2.99357 27.5153 2.86806 27.2014 2.86528Z" fill="#436F7F"/>
<path d="M27.2014 5.73052C26.9655 5.72843 26.7343 5.79584 26.5371 5.92419C26.3399 6.05255 26.1857 6.23607 26.0939 6.45145C26.0022 6.66682 25.9771 6.90436 26.0218 7.1339C26.0666 7.36343 26.1791 7.57463 26.3452 7.74068C26.5112 7.90672 26.7233 8.02012 26.9545 8.0665C27.1858 8.11289 27.4257 8.09013 27.6438 8.00115C27.862 7.91218 28.0486 7.761 28.1799 7.56677C28.3111 7.37254 28.3812 7.14404 28.3812 6.91026C28.3812 6.59919 28.2573 6.30069 28.0363 6.07975C27.8153 5.8588 27.5153 5.73329 27.2014 5.73052Z" fill="#436F7F"/>
<path d="M27.2013 8.59477C26.965 8.59269 26.7333 8.66036 26.536 8.78919C26.3386 8.91802 26.1843 9.10215 26.0929 9.31815C26.0015 9.53414 25.977 9.77222 26.0226 10.002C26.0682 10.2319 26.1818 10.443 26.3489 10.6087C26.5161 10.7743 26.7292 10.8869 26.9611 10.932C27.193 10.9772 27.4333 10.953 27.6512 10.8624C27.8692 10.7718 28.055 10.619 28.185 10.4233C28.315 10.2277 28.3833 9.99819 28.3812 9.76397C28.3784 9.45473 28.2532 9.15892 28.0326 8.94024C27.8119 8.72156 27.5134 8.59752 27.2013 8.59477Z" fill="#436F7F"/>
<path d="M27.2013 11.46C26.965 11.4579 26.7333 11.5256 26.536 11.6545C26.3386 11.7833 26.1843 11.9674 26.0929 12.1834C26.0015 12.3994 25.977 12.6375 26.0226 12.8673C26.0682 13.0971 26.1818 13.3083 26.3489 13.4739C26.5161 13.6396 26.7292 13.7521 26.9611 13.7973C27.193 13.8425 27.4333 13.8183 27.6512 13.7277C27.8692 13.6371 28.055 13.4842 28.185 13.2886C28.315 13.093 28.3833 12.8635 28.3812 12.6292C28.3784 12.32 28.2532 12.0242 28.0326 11.8055C27.8119 11.5868 27.5134 11.4628 27.2013 11.46Z" fill="#436F7F"/>
<path d="M27.2013 14.3252C26.965 14.3232 26.7333 14.3909 26.536 14.5197C26.3386 14.6485 26.1843 14.8327 26.0929 15.0486C26.0015 15.2646 25.977 15.5027 26.0226 15.7325C26.0682 15.9624 26.1818 16.1735 26.3489 16.3392C26.5161 16.5048 26.7292 16.6174 26.9611 16.6625C27.193 16.7077 27.4333 16.6835 27.6512 16.5929C27.8692 16.5023 28.055 16.3495 28.185 16.1538C28.315 15.9582 28.3833 15.7287 28.3812 15.4945C28.3784 15.1852 28.2532 14.8894 28.0326 14.6707C27.8119 14.4521 27.5134 14.328 27.2013 14.3252Z" fill="#436F7F"/>
<path d="M27.2013 17.1905C26.965 17.1884 26.7333 17.2561 26.536 17.3849C26.3386 17.5138 26.1843 17.6979 26.0929 17.9139C26.0015 18.1299 25.977 18.368 26.0226 18.5978C26.0682 18.8276 26.1818 19.0388 26.3489 19.2044C26.5161 19.37 26.7292 19.4826 26.9611 19.5278C27.193 19.573 27.4333 19.5487 27.6512 19.4581C27.8692 19.3675 28.055 19.2147 28.185 19.0191C28.315 18.8235 28.3833 18.5939 28.3812 18.3597C28.3784 18.0505 28.2532 17.7547 28.0326 17.536C27.8119 17.3173 27.5134 17.1932 27.2013 17.1905Z" fill="#436F7F"/>
<path d="M27.2013 20.0557C26.965 20.0536 26.7333 20.1213 26.536 20.2502C26.3386 20.379 26.1843 20.5631 26.0929 20.7791C26.0015 20.9951 25.977 21.2332 26.0226 21.463C26.0682 21.6928 26.1818 21.904 26.3489 22.0696C26.5161 22.2353 26.7292 22.3478 26.9611 22.393C27.193 22.4382 27.4333 22.414 27.6512 22.3234C27.8692 22.2328 28.055 22.0799 28.185 21.8843C28.315 21.6887 28.3833 21.4592 28.3812 21.2249C28.3784 20.9157 28.2532 20.6199 28.0326 20.4012C27.8119 20.1825 27.5134 20.0585 27.2013 20.0557Z" fill="#436F7F"/>
<path d="M27.2013 22.9209C26.965 22.9189 26.7333 22.9866 26.536 23.1154C26.3386 23.2442 26.1843 23.4284 26.0929 23.6444C26.0015 23.8603 25.977 24.0984 26.0226 24.3282C26.0682 24.5581 26.1818 24.7692 26.3489 24.9349C26.5161 25.1005 26.7292 25.2131 26.9611 25.2583C27.193 25.3034 27.4333 25.2792 27.6512 25.1886C27.8692 25.098 28.055 24.9452 28.185 24.7495C28.315 24.5539 28.3833 24.3244 28.3812 24.0902C28.3784 23.7809 28.2532 23.4851 28.0326 23.2664C27.8119 23.0478 27.5134 22.9237 27.2013 22.9209Z" fill="#436F7F"/>
<path d="M30.0922 4.7049e-05C29.8563 -0.00204026 29.6251 0.0653673 29.428 0.193724C29.2308 0.322081 29.0766 0.505598 28.9848 0.720976C28.8931 0.936355 28.868 1.17389 28.9127 1.40343C28.9574 1.63297 29.07 1.84416 29.236 2.01021C29.4021 2.17625 29.6142 2.28965 29.8454 2.33604C30.0766 2.38242 30.3166 2.35969 30.5347 2.27072C30.7529 2.18174 30.9394 2.03053 31.0707 1.8363C31.202 1.64207 31.2721 1.41357 31.2721 1.17979C31.2721 0.868718 31.1482 0.570222 30.9272 0.349277C30.7062 0.128331 30.4061 0.00282448 30.0922 4.7049e-05Z" fill="#436F7F"/>
<path d="M30.0922 2.86528C29.8563 2.86319 29.6251 2.9306 29.428 3.05896C29.2308 3.18732 29.0766 3.37083 28.9848 3.58621C28.8931 3.80159 28.868 4.03912 28.9127 4.26866C28.9574 4.4982 29.07 4.7094 29.236 4.87544C29.4021 5.04149 29.6142 5.15489 29.8454 5.20127C30.0766 5.24765 30.3166 5.22493 30.5347 5.13595C30.7529 5.04698 30.9394 4.89577 31.0707 4.70154C31.202 4.5073 31.2721 4.2788 31.2721 4.04503C31.2721 3.73395 31.1482 3.43546 30.9272 3.21451C30.7062 2.99357 30.4061 2.86806 30.0922 2.86528Z" fill="#436F7F"/>
<path d="M30.0922 5.73052C29.8563 5.72843 29.6251 5.79584 29.428 5.92419C29.2308 6.05255 29.0766 6.23607 28.9848 6.45145C28.8931 6.66682 28.868 6.90436 28.9127 7.1339C28.9574 7.36343 29.07 7.57463 29.236 7.74068C29.4021 7.90672 29.6142 8.02012 29.8454 8.0665C30.0766 8.11289 30.3166 8.09013 30.5347 8.00115C30.7529 7.91218 30.9394 7.761 31.0707 7.56677C31.202 7.37254 31.2721 7.14404 31.2721 6.91026C31.2721 6.59919 31.1482 6.30069 30.9272 6.07975C30.7062 5.8588 30.4061 5.73329 30.0922 5.73052Z" fill="#436F7F"/>
<path d="M30.0923 8.59477C29.856 8.59269 29.6243 8.66036 29.4269 8.78919C29.2295 8.91802 29.0753 9.10215 28.9839 9.31815C28.8925 9.53414 28.868 9.77222 28.9136 10.002C28.9592 10.2319 29.0728 10.443 29.2399 10.6087C29.4071 10.7743 29.6202 10.8869 29.8521 10.932C30.084 10.9772 30.3243 10.953 30.5422 10.8624C30.7602 10.7718 30.946 10.619 31.076 10.4233C31.206 10.2277 31.2743 9.99819 31.2722 9.76397C31.2694 9.45473 31.1442 9.15892 30.9236 8.94024C30.7029 8.72156 30.4044 8.59752 30.0923 8.59477Z" fill="#436F7F"/>
<path d="M30.0923 11.46C29.856 11.4579 29.6243 11.5256 29.4269 11.6545C29.2295 11.7833 29.0753 11.9674 28.9839 12.1834C28.8925 12.3994 28.868 12.6375 28.9136 12.8673C28.9592 13.0971 29.0728 13.3083 29.2399 13.4739C29.4071 13.6396 29.6202 13.7521 29.8521 13.7973C30.084 13.8425 30.3243 13.8183 30.5422 13.7277C30.7602 13.6371 30.946 13.4842 31.076 13.2886C31.206 13.093 31.2743 12.8635 31.2722 12.6292C31.2694 12.32 31.1442 12.0242 30.9236 11.8055C30.7029 11.5868 30.4044 11.4628 30.0923 11.46Z" fill="#436F7F"/>
<path d="M30.0923 20.0557C29.856 20.0536 29.6243 20.1213 29.4269 20.2502C29.2295 20.379 29.0753 20.5631 28.9839 20.7791C28.8925 20.9951 28.868 21.2332 28.9136 21.463C28.9592 21.6928 29.0728 21.904 29.2399 22.0696C29.4071 22.2353 29.6202 22.3478 29.8521 22.393C30.084 22.4382 30.3243 22.414 30.5422 22.3234C30.7602 22.2328 30.946 22.0799 31.076 21.8843C31.206 21.6887 31.2743 21.4592 31.2722 21.2249C31.2694 20.9157 31.1442 20.6199 30.9236 20.4012C30.7029 20.1825 30.4044 20.0585 30.0923 20.0557Z" fill="#436F7F"/>
<path d="M30.0923 22.9209C29.856 22.9189 29.6243 22.9866 29.4269 23.1154C29.2295 23.2442 29.0753 23.4284 28.9839 23.6444C28.8925 23.8603 28.868 24.0984 28.9136 24.3282C28.9592 24.5581 29.0728 24.7692 29.2399 24.9349C29.4071 25.1005 29.6202 25.2131 29.8521 25.2583C30.084 25.3034 30.3243 25.2792 30.5422 25.1886C30.7602 25.098 30.946 24.9452 31.076 24.7495C31.206 24.5539 31.2743 24.3244 31.2722 24.0902C31.2694 23.7809 31.1442 23.4851 30.9236 23.2664C30.7029 23.0478 30.4044 22.9237 30.0923 22.9209Z" fill="#436F7F"/>
<path d="M32.9837 20.0557C32.7473 20.0536 32.5157 20.1213 32.3183 20.2502C32.1209 20.379 31.9667 20.5631 31.8753 20.7791C31.7838 20.9951 31.7594 21.2332 31.805 21.463C31.8506 21.6928 31.9642 21.904 32.1313 22.0696C32.2984 22.2353 32.5115 22.3478 32.7434 22.393C32.9754 22.4382 33.2156 22.414 33.4336 22.3234C33.6515 22.2328 33.8374 22.0799 33.9674 21.8843C34.0974 21.6887 34.1656 21.4592 34.1635 21.2249C34.1608 20.9157 34.0356 20.6199 33.8149 20.4012C33.5943 20.1825 33.2957 20.0585 32.9837 20.0557Z" fill="#436F7F"/>
<path d="M32.9837 22.9209C32.7473 22.9189 32.5157 22.9866 32.3183 23.1154C32.1209 23.2442 31.9667 23.4284 31.8753 23.6444C31.7838 23.8603 31.7594 24.0984 31.805 24.3282C31.8506 24.5581 31.9642 24.7692 32.1313 24.9349C32.2984 25.1005 32.5115 25.2131 32.7434 25.2583C32.9754 25.3034 33.2156 25.2792 33.4336 25.1886C33.6515 25.098 33.8374 24.9452 33.9674 24.7495C34.0974 24.5539 34.1656 24.3244 34.1635 24.0902C34.1608 23.7809 34.0356 23.4851 33.8149 23.2664C33.5943 23.0478 33.2957 22.9237 32.9837 22.9209Z" fill="#436F7F"/>
<path d="M35.8747 20.0557C35.6383 20.0536 35.4067 20.1213 35.2093 20.2502C35.0119 20.379 34.8577 20.5631 34.7662 20.7791C34.6748 20.9951 34.6504 21.2332 34.6959 21.463C34.7415 21.6928 34.8551 21.904 35.0223 22.0696C35.1894 22.2353 35.4025 22.3478 35.6344 22.393C35.8664 22.4382 36.1066 22.414 36.3246 22.3234C36.5425 22.2328 36.7283 22.0799 36.8583 21.8843C36.9884 21.6887 37.0566 21.4592 37.0545 21.2249C37.0518 20.9157 36.9266 20.6199 36.7059 20.4012C36.4852 20.1825 36.1867 20.0585 35.8747 20.0557Z" fill="#436F7F"/>
<path d="M35.8749 22.9209C35.639 22.9209 35.4084 22.9904 35.2124 23.1205C35.0164 23.2506 34.8638 23.4355 34.774 23.6517C34.6842 23.8679 34.6613 24.1056 34.7081 24.3347C34.7549 24.5639 34.8694 24.7741 35.0369 24.9386C35.2045 25.1032 35.4176 25.2147 35.6492 25.259C35.8809 25.3033 36.1206 25.2785 36.3379 25.1876C36.5552 25.0966 36.7404 24.9438 36.87 24.7484C36.9995 24.553 37.0675 24.3239 37.0654 24.0901C37.0626 23.7791 36.936 23.4817 36.713 23.2627C36.49 23.0437 36.1888 22.9209 35.8749 22.9209Z" fill="#436F7F"/>
<path d="M38.7662 22.9209C38.5298 22.9189 38.2982 22.9866 38.1008 23.1154C37.9034 23.2442 37.7491 23.4284 37.6577 23.6444C37.5663 23.8603 37.5418 24.0984 37.5874 24.3282C37.633 24.5581 37.7466 24.7692 37.9138 24.9349C38.0809 25.1005 38.294 25.2131 38.5259 25.2583C38.7578 25.3034 38.9981 25.2792 39.216 25.1886C39.434 25.098 39.6198 24.9452 39.7498 24.7495C39.8798 24.5539 39.9481 24.3244 39.946 24.0902C39.9432 23.7809 39.8181 23.4851 39.5974 23.2664C39.3767 23.0478 39.0782 22.9237 38.7662 22.9209Z" fill="#436F7F"/>
<path d="M38.9466 1.33728C38.7377 0.916173 38.4064 0.56669 37.9953 0.333891C37.5842 0.101092 37.1122 -0.0043427 36.64 0.0311433H32.9834C32.6677 0.0311433 32.3649 0.155431 32.1416 0.376676C31.9184 0.597922 31.7929 0.897998 31.7929 1.21089V1.46368C31.8513 1.72466 31.9981 1.95797 32.2089 2.12472C32.4197 2.29147 32.6818 2.38159 32.9516 2.38009C33.2208 2.37967 33.4819 2.28885 33.6924 2.12241C33.9028 1.95597 34.0501 1.72375 34.1102 1.46368V1.71647C34.1009 1.94422 34.0259 2.16456 33.894 2.35128C33.7621 2.53801 33.5789 2.68327 33.3661 2.76982C33.2246 2.81448 33.0783 2.84278 32.9303 2.85411C32.6171 2.8621 32.319 2.98897 32.0974 3.20851C31.8759 3.42805 31.7478 3.72348 31.7398 4.03385V4.28664C31.7981 4.54763 31.9449 4.78093 32.1557 4.94768C32.3666 5.11444 32.6287 5.20459 32.8984 5.20308C33.1676 5.20267 33.4288 5.11181 33.6392 4.94537C33.8497 4.77893 33.9969 4.54672 34.057 4.28664V4.53947C34.0478 4.76721 33.9728 4.98752 33.8409 5.17425C33.709 5.36097 33.5257 5.50626 33.313 5.59281C33.1723 5.64052 33.0256 5.66886 32.8771 5.67707C32.5631 5.68248 32.2635 5.80853 32.0414 6.02861C31.8193 6.2487 31.6921 6.54561 31.6866 6.85681C31.6874 7.06963 31.7468 7.27823 31.8583 7.46009C31.9699 7.64194 32.1294 7.79018 32.3197 7.88881C32.51 7.98744 32.7239 8.03272 32.9383 8.01977C33.1526 8.00683 33.3594 7.93615 33.5362 7.81536L33.6637 7.87856C34.1208 8.99511 38.0112 18.412 38.5852 19.7603C38.5852 19.8867 38.5852 19.9394 38.4895 19.971C38.1982 20.0155 37.932 20.1602 37.7376 20.3798C37.5433 20.5994 37.4331 20.8798 37.4266 21.1718C37.4174 21.3443 37.4466 21.5167 37.512 21.6769C37.5775 21.837 37.6776 21.9809 37.8054 22.0985C37.9331 22.216 38.0854 22.3043 38.2513 22.3572C38.4173 22.41 38.593 22.4261 38.7659 22.4042C39.0106 22.4035 39.2487 22.3261 39.4462 22.183C39.5525 22.1198 39.6375 22.183 39.68 22.183L42.7413 29.5565C42.8578 29.9605 43.105 30.3155 43.445 30.5667C43.7849 30.8179 44.1987 30.9515 44.6228 30.9469H50.6178C50.7369 30.9591 50.8571 30.9389 50.9655 30.8885C51.0739 30.8381 51.1664 30.7594 51.233 30.6609C51.2997 30.5623 51.338 30.4477 51.3438 30.3292C51.3497 30.2107 51.3228 30.0929 51.2662 29.9883L38.9466 1.33728Z" fill="#436F7F"/>
<path d="M115.777 29.6937C115.224 29.0722 103.213 14.7783 103.213 14.7783C103.213 14.7783 113.768 2.38042 114.331 1.76948C114.681 1.48208 114.912 1.07711 114.98 0.631849C114.98 0.17891 114.639 -0.000133151 114.193 -0.000133151H108.283C107.927 -0.0396626 107.566 0.014483 107.238 0.156866C106.909 0.299249 106.625 0.524834 106.412 0.810932C105.774 1.51667 94.1564 15.3155 94.1564 15.3155C94.1564 15.3155 105.658 29.146 106.423 30.0624C106.64 30.4161 106.957 30.6988 107.335 30.8748C107.713 31.0509 108.135 31.1127 108.549 31.0525H115.256C115.442 31.0556 115.623 30.9871 115.759 30.8615C115.896 30.7359 115.978 30.5628 115.989 30.3784C116.004 30.2559 115.993 30.1317 115.956 30.0138C115.92 29.8959 115.858 29.7869 115.777 29.6937Z" fill="#436F7F"/>
<path d="M79.5832 25.0696H64.5955V0.674125C64.5927 0.49437 64.5187 0.322928 64.3895 0.196795C64.2602 0.0706631 64.086 -2.12718e-05 63.9046 4.80198e-09H55.401C55.2206 4.80198e-09 55.0476 0.0710121 54.92 0.197438C54.7924 0.323864 54.7207 0.495332 54.7207 0.674125V4.66632C54.7207 4.8461 54.792 5.01866 54.9193 5.14677C55.0466 5.27487 55.2196 5.34822 55.401 5.35099H56.8466V30.3153C56.8466 30.4951 56.9179 30.6677 57.0452 30.7958C57.1725 30.9239 57.3455 30.9972 57.5269 31H79.5832C79.7636 31 79.9366 30.9289 80.0642 30.8025C80.1918 30.6761 80.2635 30.5046 80.2635 30.3258V25.7438C80.2635 25.565 80.1918 25.3935 80.0642 25.2671C79.9366 25.1407 79.7636 25.0696 79.5832 25.0696Z" fill="#436F7F"/>
</g>
<defs>
<clipPath id="clip0">
<rect width="116" height="31" fill="white"/>
</clipPath>
</defs>
</svg>
