<svg width="40" height="30" viewBox="0 0 40 30" fill="none" xmlns="http://www.w3.org/2000/svg">
<path d="M19.9986 29.5307C19.9952 29.5307 19.9916 29.5307 19.9879 29.5307C18.7809 29.5224 8.11075 29.4251 5.08767 28.6075C2.97493 28.0396 1.30715 26.3736 0.737687 24.2606C-0.0533298 21.2909 -0.00297568 15.5735 0.0025175 15.1169C-0.0026705 14.6625 -0.053635 8.89772 0.735246 5.90363C0.736161 5.90089 0.736772 5.89784 0.737687 5.89509C1.30074 3.80616 3.00606 2.08863 5.08248 1.51917C5.08767 1.51764 5.09316 1.51642 5.09835 1.51489C8.08725 0.72937 18.7785 0.63324 19.9879 0.625H20.0096C21.2196 0.63324 31.9182 0.730591 34.9135 1.54938C37.0207 2.11579 38.6873 3.77961 39.2583 5.8899C40.0789 8.88612 40.0029 14.6634 39.9947 15.1511C40.0005 15.6314 40.0484 21.2976 39.2619 24.2823C39.2613 24.2853 39.2604 24.2881 39.2598 24.2908C38.69 26.4039 37.0225 28.0698 34.9074 28.6384C34.9046 28.6393 34.9016 28.6399 34.8988 28.6408C31.9102 29.426 21.2187 29.5221 20.0096 29.5307C20.0059 29.5307 20.0022 29.5307 19.9986 29.5307ZM3.75588 6.70503C3.0613 9.34785 3.12691 15.0391 3.12752 15.0965V15.1377C3.10677 16.716 3.17971 21.287 3.75619 23.4519C4.03573 24.4886 4.85818 25.3098 5.90127 25.5903C8.1318 26.1936 16.8223 26.3834 19.9986 26.4057C23.1831 26.3834 31.8864 26.1988 34.1005 25.6195C35.1402 25.3382 35.9599 24.5197 36.2413 23.4818C36.8184 21.2851 36.8907 16.7365 36.8696 15.1682C36.8696 15.1517 36.8696 15.1352 36.87 15.1187C36.8986 13.5214 36.8422 8.89711 36.244 6.71479C36.2434 6.71266 36.2428 6.71052 36.2425 6.70838C35.9617 5.66712 35.139 4.84589 34.0959 4.56544C31.887 3.96149 23.1825 3.77228 19.9986 3.75001C16.8162 3.77228 8.12143 3.95661 5.90066 4.53522C4.8774 4.81904 4.03634 5.66956 3.75588 6.70503ZM37.751 23.8843H37.7519H37.751ZM16.0157 21.4057V8.74971L26.9532 15.0778L16.0157 21.4057Z" fill="white"/>
</svg>
